# 3ds Max Wavefront OBJ Exporter v0.97b - (c)2007 guruware
# File Created: 26.12.2019 14:04:09

mtllib B_WatchAB_2_001.mtl

#
# object B_WatchAB_2_002
#

v  1.0006 0.8460 -1.2467
v  -0.9967 0.8460 -1.2467
v  -1.0006 1.4454 0.5013
v  0.9967 1.4454 0.5013
v  -0.9998 -0.0121 -1.0106
v  -0.9974 0.3514 -1.2851
v  0.9998 0.3514 -1.2851
v  0.9975 -0.0121 -1.0106
v  -0.9998 -0.0121 0.8810
v  -0.9998 0.4412 1.1445
v  1.0281 -0.0121 0.8810
v  0.9975 0.4412 1.1445
v  -1.0005 1.1310 1.0133
v  0.9968 1.1310 1.0133
# 14 vertices

vn 0.0000 0.6121 -0.7907
vn -0.0000 0.6124 -0.7906
vn 0.0000 0.9939 0.1102
vn 0.0000 0.9940 0.1097
vn 0.0000 -0.6026 -0.7980
vn 0.0000 -0.2817 -0.9595
vn 0.0000 -0.2801 -0.9600
vn -1.0000 0.0010 -0.0009
vn -1.0000 -0.0004 -0.0009
vn -1.0000 0.0024 -0.0014
vn -1.0000 0.0064 -0.0000
vn 0.0000 -0.5026 0.8645
vn 0.0000 -0.1754 0.9845
vn 0.0000 -0.1684 0.9857
vn 1.0000 0.0022 -0.0005
vn 1.0000 -0.0029 0.0015
vn 0.9996 0.0268 -0.0050
vn 0.9969 0.0768 -0.0161
vn -1.0000 -0.0013 -0.0010
vn -1.0000 0.0017 -0.0028
vn -1.0000 -0.0013 -0.0009
vn 0.0000 0.5681 0.8230
vn 0.0000 0.5678 0.8232
vn 1.0000 -0.0012 0.0018
vn 1.0000 0.0025 0.0013
vn 1.0000 0.0013 0.0011
# 26 vertex normals

vt 0.7862 0.2603 0.0000
vt 0.7862 0.6573 0.0000
vt 0.4022 0.6573 0.0000
vt 0.4022 0.2603 0.0000
vt 0.9838 0.6573 0.0000
vt 0.8891 0.6573 0.0000
vt 0.8891 0.2603 0.0000
vt 0.9838 0.2603 0.0000
vt 0.6050 0.9695 0.0000
vt 0.5236 0.9042 0.0000
vt 0.9920 0.7616 0.0000
vt 0.9651 0.8454 0.0000
vt 0.0229 0.2603 0.0000
vt 0.1318 0.2603 0.0000
vt 0.1318 0.6573 0.0000
vt 0.0229 0.6573 0.0000
vt 0.4774 0.7867 0.0000
vt 0.5079 0.8702 0.0000
vt 0.0345 0.7410 0.0000
vt 0.1134 0.6736 0.0000
vt 0.5753 0.6781 0.0000
vt 0.9491 0.6781 0.0000
vt 0.5008 0.7698 0.0000
vt 0.2776 0.6573 0.0000
vt 0.2776 0.2603 0.0000
vt 0.4711 0.9621 0.0000
vt 0.0973 0.9621 0.0000
vt 0.0170 0.8751 0.0000
# 28 texture coords

g B_WatchAB_2_002
usemtl I_WatchAB_2_001_03
s 1
f 1/1/1 2/2/2 3/3/3 4/4/4 
f 5/5/5 6/6/6 7/7/7 8/8/5 
s 2
f 9/9/8 10/10/9 6/11/10 5/12/11 
s 1
f 11/13/12 12/14/13 10/15/14 9/16/12 
s 2
f 8/17/15 7/18/16 12/19/17 11/20/18 
s 1
f 2/2/2 1/1/1 7/7/7 6/6/6 
s 2
f 3/21/19 2/22/20 6/11/10 13/23/21 
s 1
f 4/4/4 3/3/3 13/24/22 14/25/23 
s 2
f 1/26/24 4/27/25 14/28/26 7/18/16 
s 1
f 12/14/13 14/25/23 13/24/22 10/15/14 
s 2
f 10/10/9 13/23/21 6/11/10 
f 7/18/16 14/28/26 12/19/17 
# 10 polygons - 2 triangles

#
# object B_WatchAB_2_001
#

v  0.7805 1.4894 -0.3829
v  0.7800 1.4218 -0.5878
v  0.0176 1.5095 -0.5156
v  -0.6658 1.3480 -0.0805
v  -0.6373 1.5667 -0.1831
v  -0.7745 1.3966 -0.2174
v  -0.7705 1.2814 -0.1848
v  0.7690 1.2045 -0.5028
v  0.7029 1.1222 -0.7189
v  0.7092 1.3410 -0.7897
v  0.7720 1.2767 -0.2991
v  0.4765 1.5144 0.3614
v  0.5693 1.4323 0.1323
v  0.4751 1.5930 0.3572
v  -0.6290 1.3398 -0.8124
v  -0.6513 1.1179 -0.7288
v  -0.7791 1.1659 -0.6383
v  -0.7707 1.2857 -0.6779
v  0.0874 1.2077 -1.1775
v  -0.2977 1.2309 -1.1273
v  -0.7030 1.4960 -0.3588
v  0.5836 1.2725 -0.9696
v  0.5655 1.1940 -1.0434
v  0.4109 1.2327 -1.1042
v  -0.5239 1.6247 -0.0112
v  -0.4810 1.6130 0.1102
v  -0.3287 1.6758 0.1458
v  0.5712 1.6358 0.0265
v  0.6935 1.3523 -0.0838
v  0.7136 1.5604 -0.1734
v  -0.2909 0.9458 -1.2957
v  -0.2989 1.0410 -1.2072
v  0.3830 1.0437 -1.2113
v  0.3702 0.9492 -1.3000
v  0.3631 0.6241 -1.4243
v  -0.2879 0.6231 -1.4194
v  0.3644 0.2990 -1.4463
v  0.3637 0.0625 -1.3105
v  -0.2911 0.0664 -1.3076
v  -0.2933 0.3004 -1.4408
v  -0.3008 1.1895 1.1105
v  -0.2996 0.7844 1.2515
v  0.3751 0.7837 1.2573
v  0.3745 1.1909 1.1163
v  0.3678 1.5319 0.6576
v  -0.3071 1.5111 0.6571
v  0.3799 1.6004 0.3746
v  -0.3011 1.5886 0.3666
v  0.4019 0.9532 -1.2211
v  0.3890 0.6125 -1.3294
v  -0.3168 0.8989 -1.2336
v  -0.3141 0.6124 -1.3379
v  0.3913 0.3261 -1.3511
v  0.3900 0.1203 -1.2478
v  -0.3148 -0.0305 -1.0598
v  -0.3176 0.1203 -1.2479
v  -0.2889 -0.1126 -1.0898
v  0.4013 0.4188 1.1778
v  0.4007 0.7800 1.1625
v  0.3757 0.3766 1.2711
v  -0.3242 0.4188 1.1778
v  -0.2984 0.3792 1.2653
v  -0.3254 0.7800 1.1625
v  0.4017 1.4409 0.6262
v  0.4001 1.1411 1.0199
v  -0.3267 1.1411 1.0199
v  -0.3268 1.4409 0.6262
v  -0.2989 -0.0608 1.0069
v  0.3751 -0.0653 1.0098
v  0.4007 0.0090 0.9211
v  -0.3248 0.0090 0.9211
v  -0.3205 0.3260 -1.3514
v  0.3675 -0.1190 -1.0900
v  0.3930 -0.0305 -1.0598
v  -0.3124 1.5023 0.3722
v  0.3967 1.5052 0.3721
v  -0.4035 1.6032 0.3554
v  -0.3907 1.5055 0.3591
v  0.0164 1.7144 0.2258
v  -0.7007 1.4045 -0.6177
v  -0.3154 0.9503 -1.1965
v  0.3841 1.6724 0.1618
v  -0.5252 1.4110 0.0850
v  -0.5212 1.2872 -0.9633
v  -0.5265 1.0779 -0.8897
v  0.4740 1.0381 -1.2171
v  0.4688 0.9503 -1.1840
v  -0.4097 1.0382 -1.2048
v  0.5999 1.0373 -0.9151
v  0.5513 1.6039 0.1370
v  -0.3863 0.9503 -1.1996
v  -0.5460 1.4395 -0.0282
v  -0.5715 1.4980 -0.0919
v  -0.7084 1.5260 -0.0051
v  -0.6833 1.4674 0.0586
v  -0.6169 1.4690 -0.1641
v  -0.7540 1.4973 -0.0774
v  -0.6369 1.3815 -0.1727
v  -0.7744 1.4099 -0.0859
v  -0.6114 1.3231 -0.1090
v  -0.7492 1.3513 -0.0223
v  -0.5660 1.3520 -0.0368
v  -0.7037 1.3801 0.0500
v  -0.6345 1.1658 -0.6864
v  -0.6267 1.2512 -0.7321
v  -0.7659 1.2339 -0.8043
v  -0.7744 1.1486 -0.7585
v  -0.5795 1.2568 -0.8168
v  -0.7187 1.2391 -0.8890
v  -0.5401 1.1771 -0.8558
v  -0.6799 1.1590 -0.9280
v  -0.5478 1.0917 -0.8101
v  -0.6883 1.0737 -0.8823
v  -0.5950 1.0861 -0.7254
v  -0.7356 1.0685 -0.7975
v  -0.4666 1.1706 -1.0614
v  -0.8082 1.4366 -0.3685
v  -0.8082 1.3172 -0.2995
v  -0.6757 1.3172 -0.2995
v  -0.6757 1.4366 -0.3685
v  -0.8082 1.4366 -0.5063
v  -0.6757 1.4366 -0.5063
v  -0.8082 1.3172 -0.5753
v  -0.6757 1.3172 -0.5753
v  -0.8082 1.1978 -0.5063
v  -0.6757 1.1978 -0.5063
v  -0.8082 1.1978 -0.3685
v  -0.6757 1.1978 -0.3685
# 128 vertices

vn 0.0781 0.9491 -0.3052
vn 0.0740 0.9333 -0.3513
vn 0.0008 0.9418 -0.3361
vn -0.7338 0.3237 0.5973
vn -0.7977 0.4234 0.4295
vn -0.9096 0.3151 0.2708
vn -0.9426 0.0698 0.3266
vn 0.9879 -0.0876 -0.1282
vn 0.9198 -0.1130 -0.3757
vn 0.9084 -0.1611 -0.3858
vn 0.9860 -0.1014 -0.1324
vn 0.9900 0.0129 0.1403
vn 0.9874 0.0121 0.1576
vn 0.9308 0.0362 0.3639
vn 0.9223 0.1441 0.3586
vn 0.9347 0.0564 0.3510
vn -0.7799 0.0095 -0.6258
vn -0.7172 -0.1923 -0.6698
vn -0.9054 -0.0796 -0.4169
vn -0.8735 0.1924 -0.4473
vn 0.0139 0.6200 -0.7845
vn -0.1670 0.6946 -0.6998
vn -0.0910 0.9369 -0.3375
vn -0.0759 0.9469 -0.3124
vn 0.1589 0.8653 -0.4753
vn 0.4208 0.5623 -0.7119
vn 0.1889 0.7333 -0.6532
vn 0.0676 0.9170 -0.3932
vn -0.1197 0.9749 -0.1876
vn -0.4141 0.8859 0.2089
vn -0.1809 0.9825 0.0454
vn 0.9068 0.1576 0.3911
vn 0.9026 0.1193 0.4136
vn 0.9029 0.1038 0.4171
vn -0.5490 0.4287 -0.7175
vn -0.1671 0.3592 -0.9182
vn 0.1658 0.3979 -0.9023
vn 0.5049 0.4294 -0.7488
vn 0.5709 0.1664 -0.8040
vn -0.5640 0.1772 -0.8066
vn 0.5557 -0.1877 -0.8099
vn 0.5605 -0.5320 -0.6347
vn -0.5613 -0.5362 -0.6303
vn -0.5583 -0.1850 -0.8087
vn -0.5663 0.4875 0.6645
vn -0.5780 0.1493 0.8023
vn 0.5779 0.1508 0.8020
vn 0.5646 0.4848 0.6680
vn 0.5353 0.7687 0.3500
vn -0.5997 0.7298 0.3284
vn 0.3295 0.7939 0.5111
vn -0.2759 0.7770 0.5659
vn 0.7916 0.1928 -0.5798
vn 0.9651 0.0369 -0.2592
vn -0.9513 0.1341 -0.2776
vn -0.9525 0.0677 -0.2971
vn 0.9644 -0.0537 -0.2591
vn 0.9554 -0.1809 -0.2333
vn -0.9538 -0.2374 -0.1839
vn -0.9497 -0.2039 -0.2378
vn -0.5237 -0.6606 -0.5379
vn 0.9693 -0.0509 0.2404
vn 0.9641 0.0619 0.2581
vn 0.5626 -0.2082 0.8001
vn -0.9648 -0.0557 0.2571
vn -0.5630 -0.2074 0.8000
vn -0.9593 0.0609 0.2759
vn 0.9445 0.3003 0.1329
vn 0.9716 0.1453 0.1867
vn -0.9683 0.1518 0.1983
vn -0.9686 0.2339 0.0838
vn -0.5906 -0.4109 0.6945
vn 0.5867 -0.4145 0.6957
vn 0.9760 -0.1166 0.1841
vn -0.9733 -0.1208 0.1950
vn -0.9587 -0.0545 -0.2793
vn 0.5223 -0.6541 -0.5472
vn 0.9579 -0.2141 -0.1915
vn -0.7801 0.1562 0.6058
vn 0.7381 0.1351 0.6611
vn -0.1058 0.7124 0.6938
vn -0.1307 0.0514 0.9901
vn -0.0095 0.9803 0.1975
vn -0.0890 0.9370 -0.3377
vn 0.0779 0.9508 -0.3000
vn -0.0795 0.9302 -0.3584
vn -0.7202 0.0492 -0.6921
vn 0.1791 0.9826 0.0487
vn -0.8804 0.2047 0.4278
vn -0.8813 0.1982 0.4290
vn -0.8619 -0.1344 -0.4890
vn -0.8701 -0.1450 -0.4711
vn -0.1487 0.8636 -0.4818
vn 0.0477 0.1502 -0.9875
vn 0.2184 -0.0835 -0.9723
vn -0.1540 0.2647 -0.9520
vn 0.1366 0.9811 -0.1370
vn 0.9161 -0.0691 -0.3950
vn 0.9151 -0.0687 -0.3974
vn -0.8798 -0.0974 0.4652
vn -0.9117 -0.0009 0.4109
vn 0.1588 0.0264 0.9870
vn 0.2570 0.6598 0.7062
vn 0.9603 0.0933 0.2630
vn 0.9049 -0.1958 -0.3778
vn 0.9099 -0.1666 -0.3798
vn 0.0075 -0.0911 -0.9958
vn -0.9261 -0.2033 -0.3178
vn -0.9153 -0.2613 -0.3065
vn -0.7864 0.5665 -0.2462
vn -0.8625 0.4988 -0.0858
vn 0.5527 0.3115 0.7729
vn 0.2411 0.9682 0.0667
vn 0.2566 0.9618 0.0952
vn 0.5519 0.3100 0.7742
vn -0.3115 0.6407 -0.7018
vn -0.2968 0.6657 -0.6846
vn -0.5517 -0.3134 -0.7729
vn -0.5527 -0.3102 -0.7735
vn -0.2552 -0.9624 -0.0930
vn -0.2422 -0.9678 -0.0688
vn 0.2974 -0.6646 0.6854
vn 0.3098 -0.6433 0.7001
vn -0.8622 0.1540 0.4825
vn -0.8623 0.1540 0.4825
vn -0.4505 -0.0753 0.8896
vn -0.3338 0.8326 0.4421
vn -0.3303 0.8359 0.4383
vn -0.4550 -0.0255 0.8901
vn 0.1289 0.8755 -0.4657
vn 0.1124 0.8938 -0.4341
vn 0.4549 0.0272 -0.8901
vn 0.4514 0.0691 -0.8897
vn 0.3318 -0.8343 -0.4404
vn 0.3326 -0.8352 -0.4379
vn -0.1097 -0.8961 0.4301
vn -0.1299 -0.8741 0.4680
vn -0.8550 -0.1770 -0.4875
vn -0.9314 -0.0623 -0.3587
vn -0.4627 0.4842 -0.7426
vn 0.9478 -0.0498 -0.3149
vn -0.9326 0.1637 0.3216
vn 0.3992 0.8775 0.2658
vn -0.0000 0.5000 0.8660
vn 0.0000 0.5000 0.8660
vn 0.0000 1.0000 -0.0000
vn 0.0000 0.5000 -0.8660
vn 0.0000 -0.5000 -0.8660
vn 0.0000 -1.0000 -0.0000
vn -0.0000 -0.5000 0.8660
vn 0.0000 -0.5000 0.8660
vn -1.0000 0.0000 -0.0000
vn -0.8623 0.1540 0.4824
# 153 vertex normals

vt 0.5062 0.8912 0.0000
vt 0.4070 0.8908 0.0000
vt 0.4522 0.5435 0.0000
vt 0.6469 0.1182 0.0000
vt 0.6229 0.2129 0.0000
vt 0.5801 0.1380 0.0000
vt 0.5835 0.0918 0.0000
vt 0.4648 0.9896 0.0000
vt 0.3729 0.9916 0.0000
vt 0.3761 0.9045 0.0000
vt 0.4626 0.9008 0.0000
vt 0.5442 0.9028 0.0000
vt 0.5475 0.9898 0.0000
vt 0.8388 0.9893 0.0000
vt 0.7396 0.9888 0.0000
vt 0.8472 0.9606 0.0000
vt 0.3417 0.2140 0.0000
vt 0.3230 0.1197 0.0000
vt 0.3905 0.1070 0.0000
vt 0.3955 0.1561 0.0000
vt 0.1248 0.5760 0.0000
vt 0.1475 0.4032 0.0000
vt 0.5180 0.2150 0.0000
vt 0.6055 0.2458 0.0000
vt 0.2181 0.8010 0.0000
vt 0.1656 0.7969 0.0000
vt 0.1566 0.7208 0.0000
vt 0.3070 0.8584 0.0000
vt 0.6896 0.2983 0.0000
vt 0.7486 0.3141 0.0000
vt 0.7633 0.3887 0.0000
vt 0.7287 0.9022 0.0000
vt 0.6397 0.9899 0.0000
vt 0.6317 0.9040 0.0000
vt 0.7835 0.5789 0.0000
vt 0.7905 0.6357 0.0000
vt 0.4782 0.6389 0.0000
vt 0.4868 0.5821 0.0000
vt 0.4883 0.4288 0.0000
vt 0.7824 0.4264 0.0000
vt 0.4879 0.2884 0.0000
vt 0.4863 0.1719 0.0000
vt 0.7816 0.1706 0.0000
vt 0.7824 0.2862 0.0000
vt 0.0763 0.6058 0.0000
vt 0.0734 0.4189 0.0000
vt 0.3798 0.4146 0.0000
vt 0.3792 0.6005 0.0000
vt 0.3808 0.8506 0.0000
vt 0.0767 0.8504 0.0000
vt 0.3891 0.9790 0.0000
vt 0.0790 0.9837 0.0000
vt 0.4539 0.5995 0.0000
vt 0.4442 0.4321 0.0000
vt 0.8190 0.5722 0.0000
vt 0.8211 0.4285 0.0000
vt 0.4445 0.2912 0.0000
vt 0.4469 0.1760 0.0000
vt 0.8215 0.0604 0.0000
vt 0.8191 0.1734 0.0000
vt 0.7814 0.0455 0.0000
vt 0.4213 0.2465 0.0000
vt 0.4241 0.4208 0.0000
vt 0.3771 0.2382 0.0000
vt 0.0340 0.2506 0.0000
vt 0.0754 0.2420 0.0000
vt 0.0316 0.4249 0.0000
vt 0.4252 0.8434 0.0000
vt 0.4261 0.6081 0.0000
vt 0.0320 0.6131 0.0000
vt 0.0416 0.8483 0.0000
vt 0.0704 0.0152 0.0000
vt 0.3772 0.0105 0.0000
vt 0.4313 0.0216 0.0000
vt 0.0189 0.0264 0.0000
vt 0.8233 0.2883 0.0000
vt 0.4823 0.0455 0.0000
vt 0.4405 0.0633 0.0000
vt 0.0408 0.9703 0.0000
vt 0.4320 0.9658 0.0000
vt 0.8742 0.3971 0.0000
vt 0.8621 0.3499 0.0000
vt 0.9069 0.3515 0.0000
vt 0.9125 0.3871 0.0000
vt 0.7970 0.5438 0.0000
vt 0.3917 0.2161 0.0000
vt 0.6079 0.8606 0.0000
vt 0.2970 0.2495 0.0000
vt 0.8198 0.6031 0.0000
vt 0.7689 0.7093 0.0000
vt 0.8728 0.7110 0.0000
vt 0.7352 0.1434 0.0000
vt 0.7043 0.2321 0.0000
vt 0.2680 0.2348 0.0000
vt 0.2447 0.1491 0.0000
vt 0.2226 0.2993 0.0000
vt 0.0556 0.7127 0.0000
vt 0.0568 0.7555 0.0000
vt 0.0140 0.7549 0.0000
vt 0.0195 0.7255 0.0000
vt 0.0535 0.3992 0.0000
vt 0.0572 0.3477 0.0000
vt 0.7060 0.7952 0.0000
vt 0.2825 0.9966 0.0000
vt 0.2896 0.9047 0.0000
vt 0.8589 0.1762 0.0000
vt 0.8569 0.2159 0.0000
vt 0.9115 0.7317 0.0000
vt 0.8966 0.7654 0.0000
vt 0.8625 0.7550 0.0000
vt 0.7646 0.9281 0.0000
vt 0.1639 0.9940 0.0000
vt 0.1639 0.9583 0.0000
vt 0.0163 0.3551 0.0000
vt 0.0131 0.3871 0.0000
vt 0.1243 0.2114 0.0000
vt 0.1029 0.1819 0.0000
vt 0.4305 0.2036 0.0000
vt 0.5425 0.2017 0.0000
vt 0.8652 0.0047 0.0000
vt 0.9287 0.0041 0.0000
vt 0.9295 0.0937 0.0000
vt 0.8660 0.0943 0.0000
vt 0.9923 0.0035 0.0000
vt 0.9931 0.0932 0.0000
vt 0.6114 0.0069 0.0000
vt 0.6767 0.0063 0.0000
vt 0.6775 0.0959 0.0000
vt 0.6121 0.0965 0.0000
vt 0.7403 0.0057 0.0000
vt 0.7411 0.0954 0.0000
vt 0.8019 0.0052 0.0000
vt 0.8027 0.0948 0.0000
vt 0.1038 0.3084 0.0000
vt 0.0402 0.3057 0.0000
vt 0.1084 0.1983 0.0000
vt 0.1379 0.2547 0.0000
vt 0.0134 0.0086 0.0000
vt 0.0767 0.0086 0.0000
vt 0.0767 0.0931 0.0000
vt 0.0134 0.0931 0.0000
vt 0.1403 0.0086 0.0000
vt 0.1403 0.0931 0.0000
vt 0.2038 0.0086 0.0000
vt 0.2038 0.0931 0.0000
vt 0.2673 0.0086 0.0000
vt 0.2673 0.0931 0.0000
vt 0.3306 0.0086 0.0000
vt 0.3306 0.0931 0.0000
vt 0.3938 0.0086 0.0000
vt 0.3938 0.0931 0.0000
vt 0.0654 0.9378 0.0000
vt 0.0327 0.8831 0.0000
vt 0.0638 0.8275 0.0000
vt 0.1274 0.8265 0.0000
vt 0.2050 0.2207 0.0000
vt 0.1476 0.3174 0.0000
vt 0.2530 0.9242 0.0000
vt 0.7545 0.2247 0.0000
vt 0.7610 0.7913 0.0000
vt 0.9297 0.2290 0.0000
vt 0.9297 0.1700 0.0000
vt 0.9864 0.1700 0.0000
vt 0.9864 0.2290 0.0000
vt 0.9297 0.2880 0.0000
vt 0.9864 0.2880 0.0000
vt 0.9297 0.3469 0.0000
vt 0.9864 0.3469 0.0000
vt 0.9297 0.4059 0.0000
vt 0.9864 0.4059 0.0000
vt 0.9297 0.4649 0.0000
vt 0.9864 0.4649 0.0000
vt 0.9297 0.1110 0.0000
vt 0.9864 0.1110 0.0000
vt 0.9014 0.7839 0.0000
vt 0.9739 0.8257 0.0000
vt 0.9739 0.9095 0.0000
vt 0.9014 0.9514 0.0000
vt 0.8288 0.9095 0.0000
vt 0.8288 0.8257 0.0000
vt 0.1600 0.8812 0.0000
vt 0.1291 0.9368 0.0000
vt 0.0107 0.2493 0.0000
vt 0.0448 0.1956 0.0000
# 184 texture coords

g B_WatchAB_2_001
usemtl I_WatchAB_2_001_01
s 1
f 15/29/27 16/30/28 17/31/29 
s 2
f 18/32/30 19/33/31 20/34/32 21/35/33 
f 22/36/34 23/37/35 24/38/36 16/39/37 
f 22/36/34 16/39/37 15/40/38 25/41/39 
f 26/42/40 27/43/41 28/44/42 
f 29/45/43 30/46/44 31/47/45 32/48/46 
f 21/35/33 20/34/32 32/48/46 31/47/45 
s 1
f 33/49/47 34/50/48 17/31/29 
f 35/51/49 19/52/50 17/31/29 
f 36/53/51 37/54/52 38/55/53 
f 36/53/51 17/31/29 24/56/54 
f 39/57/55 40/58/56 41/59/57 
s 2
f 42/60/58 27/43/41 43/61/59 44/62/60 
usemtl I_WatchAB_2_001_02
s 1
f 45/63/61 46/64/62 47/65/63 48/66/64 
f 49/67/65 50/68/66 45/63/61 48/66/64 
f 51/69/67 52/70/68 53/71/69 54/72/70 
f 55/73/71 56/74/72 57/75/73 58/76/74 
f 59/77/75 60/78/76 55/73/71 58/76/74 
f 60/78/76 59/77/75 61/79/77 62/80/78 
f 48/66/64 47/65/63 63/81/79 
f 63/81/79 64/82/80 49/67/65 48/66/64 
f 65/83/81 45/63/61 50/68/66 66/84/82 
f 67/85/83 68/86/84 52/70/68 51/69/67 
f 69/87/85 70/88/86 53/71/69 71/89/87 
f 72/90/88 73/91/89 57/75/73 74/92/90 
f 75/93/91 76/94/92 56/74/72 77/95/93 
f 78/96/94 59/77/75 58/76/74 79/97/95 
f 80/98/96 55/73/71 60/78/76 81/99/97 
f 76/94/92 82/100/98 83/101/99 74/92/90 
f 83/101/99 84/102/100 72/90/88 74/92/90 
f 75/93/91 85/103/101 82/100/98 76/94/92 
f 76/94/92 74/92/90 57/75/73 56/74/72 
f 79/97/95 58/76/74 57/75/73 73/91/89 
f 56/74/72 55/73/71 80/98/96 77/95/93 
f 51/69/67 54/72/70 50/68/66 49/67/65 
f 67/85/83 51/69/67 49/67/65 64/82/80 
f 50/68/66 54/72/70 86/104/102 66/84/82 
f 52/70/68 87/105/103 71/89/87 53/71/69 
f 88/106/104 87/105/103 52/70/68 68/86/84 
f 86/104/102 54/72/70 53/71/69 70/88/86 
f 89/107/105 81/99/97 60/78/76 62/80/78 
f 59/77/75 78/96/94 90/108/106 61/79/77 
usemtl I_WatchAB_2_001_01
f 62/109/78 91/110/107 92/111/108 89/112/105 
f 62/109/78 93/113/109 41/59/57 
f 17/31/29 94/114/110 35/51/49 
f 17/31/29 44/115/111 15/29/27 
f 17/31/29 29/116/112 94/114/110 
usemtl I_WatchAB_2_001_02
f 46/64/62 45/63/61 65/83/81 95/117/113 
usemtl I_WatchAB_2_001_01
f 17/31/29 41/59/57 93/113/109 
f 93/113/109 96/118/114 17/31/29 
f 17/31/29 38/55/53 33/49/47 
f 61/119/77 96/118/114 93/113/109 
f 62/109/78 61/119/77 93/113/109 
s 2
f 97/120/115 39/121/116 19/33/31 18/32/30 
f 98/122/117 99/123/118 30/46/44 29/45/43 
s 1
f 19/52/50 39/57/55 17/31/29 
f 17/31/29 98/124/119 29/116/112 
f 47/125/63 100/126/120 101/127/121 63/128/79 
f 34/50/48 33/49/47 46/129/62 
f 46/129/62 102/130/122 34/50/48 
f 17/31/29 39/57/55 41/59/57 
f 96/118/114 42/131/123 17/31/29 
s 2
f 23/37/35 103/132/124 36/133/125 24/38/36 
f 25/41/39 15/40/38 44/62/60 43/61/59 
s 1
f 17/31/29 16/30/28 24/56/54 
f 17/31/29 42/131/123 44/115/111 
f 33/49/47 47/125/63 46/129/62 
f 33/49/47 38/55/53 47/125/63 
f 34/50/48 98/124/119 17/31/29 
f 17/31/29 36/53/51 38/55/53 
s 2
f 97/120/115 92/134/126 91/135/127 
s 1
f 61/119/77 90/136/106 26/137/128 28/138/129 
s 2
f 27/43/41 104/139/130 28/44/42 
f 103/132/124 101/140/131 100/141/132 
s 1
f 105/142/133 102/130/122 46/129/62 95/143/113 
s 2
f 102/144/134 105/145/135 99/123/118 
f 32/48/46 94/146/136 29/45/43 
f 20/34/32 19/33/31 35/147/137 
f 94/146/136 32/48/46 20/34/32 35/147/137 
s 1
f 106/148/138 107/149/139 108/150/140 109/151/141 
f 107/149/139 110/152/142 111/153/143 108/150/140 
f 110/154/142 112/155/144 113/156/145 111/157/143 
f 112/155/144 114/158/146 115/159/147 113/156/145 
f 114/158/146 116/160/148 117/161/149 115/159/147 
f 116/160/148 106/148/138 109/151/141 117/161/149 
s 2
f 109/162/150 108/163/151 115/164/151 117/165/151 
s 1
f 118/166/152 119/167/153 120/168/154 121/169/155 
f 119/167/153 122/170/156 123/171/157 120/168/154 
f 122/170/156 124/172/158 125/173/159 123/171/157 
f 124/172/158 126/174/160 127/175/161 125/173/159 
f 126/174/160 128/176/162 129/177/163 127/175/161 
f 128/176/162 118/178/152 121/179/155 129/177/163 
s 2
f 123/180/164 125/181/164 127/182/164 129/183/164 
s 1
f 91/110/107 41/59/57 40/58/56 
s 2
f 27/43/41 42/60/58 104/139/130 
s 1
f 91/110/107 62/109/78 41/59/57 
f 96/118/114 61/119/77 28/138/129 
f 100/126/120 38/55/53 37/54/52 
s 2
f 99/123/118 98/122/117 130/184/165 
f 102/144/134 99/123/118 130/184/165 
s 1
f 100/126/120 47/125/63 38/55/53 
f 98/124/119 34/50/48 130/185/166 
f 130/185/166 34/50/48 102/130/122 
s 2
f 36/133/125 103/132/124 37/186/167 
f 37/186/167 103/132/124 100/141/132 
f 39/121/116 97/120/115 40/187/168 
f 40/187/168 97/120/115 91/135/127 
s 1
f 42/131/123 96/118/114 104/188/169 
f 104/188/169 96/118/114 28/138/129 
f 131/189/170 132/190/170 133/191/170 134/192/171 
s 2
f 135/193/172 131/189/172 134/192/172 136/194/172 
s 1
f 137/195/173 135/193/173 136/194/173 138/196/173 
s 2
f 139/197/174 137/195/174 138/196/174 140/198/174 
s 1
f 141/199/175 139/197/175 140/198/175 142/200/175 
s 2
f 132/190/176 141/201/177 142/202/176 133/191/176 
s 4
f 141/203/178 132/204/178 131/205/178 135/206/178 
f 141/203/178 135/206/178 137/207/178 139/208/178 
s 2
f 121/209/164 120/210/164 123/180/164 129/183/164 
f 111/211/179 113/212/151 115/164/151 108/163/151 
# 68 polygons - 51 triangles

